:version 1.10
:name ASF
:units
  mass 1
  length 1
  angle deg
:documentation
  ASF file generated by Kaydara
:root
  axis xyz
  order  tx ty tz rx ry rz
  position 0 0 0
  orientation 0 0 0
:bonedata
  begin
    id 1
    name SpineDummy
    direction 0.999998 -0.00179978 1.38929e-006
    length 3.60008
    axis 0 0 0 xyz
  end
  begin
    id 2
    name Spine
    direction 0.964365 0.262802 0.0305839
    length 8.13928
    axis 1.33928 -1.75354 15.2838 xyz
    dof rx ry rz
  end
  begin
    id 3
    name Spine1
    direction 0.811168 0.572065 0.12144
    length 7.14954
    axis 2.2224 -6.9761 35.2157 xyz
    dof rx ry rz
  end
  begin
    id 4
    name Neck
    direction 0 0 0
    length 0
    axis 2.2224 -6.9761 35.2157 xyz
    dof rx ry rz
  end
  begin
    id 5
    name HeadDummy
    direction 0.810939 0.572387 0.121455
    length 3.55534
    axis 2.2224 -6.9761 35.2157 xyz
  end
  begin
    id 6
    name Head
    direction 0.998226 -0.000232542 0.0595419
    length 7.35666
    axis -3.03688 -3.41352 -0.0133467 xyz
    dof rx ry rz
  end
  begin
    id 7
    name R_ClavicleDummy
    direction 0.531669 -0.194489 -0.824319
    length 2.49392
    axis 2.2224 -6.9761 35.2157 xyz
  end
  begin
    id 8
    name R_Clavicle
    direction -0.155119 0.0480802 -0.986725
    length 4.485
    axis -54.2764 80.6538 162.779 xyz
    dof rx ry rz
  end
  begin
    id 9
    name R_UpperArm
    direction -0.955567 0.200068 -0.216484
    length 10.1122
    axis -72.9943 12.5026 168.175 xyz
    dof rx ry rz
  end
  begin
    id 10
    name R_Forearm
    direction -0.61433 0.385743 0.688332
    length 9.39148
    axis -117.015 -43.4982 147.875 xyz
    dof rx ry rz
  end
  begin
    id 11
    name R_Hand
    direction -0.699429 0.0170333 0.714499
    length 3.66324
    axis -45.0303 -36.7097 175.478 xyz
    dof rx ry rz
  end
  begin
    id 12
    name L_ClavicleDummy
    direction 0.40287 -0.36502 0.839319
    length 2.49392
    axis 2.2224 -6.9761 35.2157 xyz
  end
  begin
    id 13
    name L_Clavicle
    direction -0.231271 -0.0726419 0.970174
    length 4.485
    axis 18.4357 -75.9711 -162.563 xyz
    dof rx ry rz
  end
  begin
    id 14
    name L_UpperArm
    direction -0.917494 0.144359 0.370629
    length 10.1122
    axis 56.0417 -21.7544 171.058 xyz
    dof rx ry rz
  end
  begin
    id 15
    name L_Forearm
    direction -0.496786 0.615074 -0.612281
    length 9.39148
    axis 89.8094 37.7546 128.927 xyz
    dof rx ry rz
  end
  begin
    id 16
    name L_Hand
    direction -0.409932 0.64962 -0.640274
    length 3.66324
    axis -0.424369 32.133 128.52 xyz
    dof rx ry rz
  end
  begin
    id 17
    name L_ThighDummy
    direction -1.84081e-006 1.87549e-006 1
    length 3.13049
    axis 0 0 0 xyz
  end
  begin
    id 18
    name L_Thigh
    direction -0.947739 0.307978 0.083308
    length 17.9961
    axis 173.219 -4.77873 161.998 xyz
    dof rx ry rz
  end
  begin
    id 19
    name L_Calf
    direction -0.728814 -0.684427 0.0197583
    length 13.3367
    axis 167.331 -1.13214 -136.799 xyz
    dof rx ry rz
  end
  begin
    id 20
    name L_Foot
    direction -0.9028 0.418719 0.0981191
    length 5.8674
    axis 163.436 11.5135 -155.37 xyz
    dof rx ry rz
  end
  begin
    id 21
    name L_Toe0
    direction -0.35341 0.886259 0.299411
    length 4.75286
    axis 169.316 -17.4222 111.74 xyz
    dof rx ry rz
  end
  begin
    id 22
    name R_ThighDummy
    direction 9.32778e-007 -8.82053e-007 -1
    length 3.13049
    axis 0 0 0 xyz
  end
  begin
    id 23
    name R_Thigh
    direction -0.925064 0.37528 -0.0585023
    length 17.9961
    axis -178.698 3.35385 157.919 xyz
    dof rx ry rz
  end
  begin
    id 24
    name R_Calf
    direction -0.68969 -0.718776 -0.0876886
    length 13.3367
    axis -160.504 5.03065 -133.817 xyz
    dof rx ry rz
  end
  begin
    id 25
    name R_Foot
    direction -0.857405 0.418858 -0.299022
    length 5.8674
    axis -161.328 4.38911 -154.413 xyz
    dof rx ry rz
  end
  begin
    id 26
    name R_Toe0
    direction -0.100745 0.952789 -0.286433
    length 4.75286
    axis 171.683 16.6445 96.0359 xyz
    dof rx ry rz
  end
:hierarchy
  begin
    root SpineDummy L_ThighDummy R_ThighDummy
    SpineDummy Spine
    Spine Spine1
    Spine1 Neck
    Neck HeadDummy R_ClavicleDummy L_ClavicleDummy
    HeadDummy Head
    R_ClavicleDummy R_Clavicle
    R_Clavicle R_UpperArm
    R_UpperArm R_Forearm
    R_Forearm R_Hand
    L_ClavicleDummy L_Clavicle
    L_Clavicle L_UpperArm
    L_UpperArm L_Forearm
    L_Forearm L_Hand
    L_ThighDummy L_Thigh
    L_Thigh L_Calf
    L_Calf L_Foot
    L_Foot L_Toe0
    R_ThighDummy R_Thigh
    R_Thigh R_Calf
    R_Calf R_Foot
    R_Foot R_Toe0
  end

:SAMPLES-PER-SECOND 30
:FULLY-SPECIFIED
:DEGREES
296
root  30.3179 26.4214 -11.8005 -161.226 -13.0932 108.545
Spine  -1.30495 -7.19126 -7.61756
Spine1  -1.35272 12.0255 6.2316
Neck  3.97569e-016 0 -2.38542e-015
Head  48.3747 -26.4659 40.7774
R_Clavicle  0.583268 -15.2753 4.66539
R_UpperArm  16.9375 -2.72759 46.9123
R_Forearm  12.5874 33.714 -33.6738
R_Hand  3.09421 8.63959 10.5824
L_Clavicle  -0.455292 14.6216 3.48598
L_UpperArm  1.8252 13.9519 38.4565
L_Forearm  5.6008 -18.6955 -23.0099
L_Hand  3.32395 12.4563 21.1479
L_Thigh  -3.62659 5.08697 10.8181
L_Calf  2.52041 0.427163 -2.56158
L_Foot  0.351547 5.91509 -4.40979
L_Toe0  0.505156 0.034446 -6.1361
R_Thigh  -6.22453 -28.0767 -23.5226
R_Calf  -19.2377 -5.77732 -18.2863
R_Foot  2.34664 7.25986 -6.89379
R_Toe0  13.9512 -7.09871 9.31633
297
root  30.5057 25.7554 -13.3088 -165.382 -14.9743 110.671
Spine  -0.415905 -6.04173 -6.59389
Spine1  -0.739636 8.85534 6.75539
Neck  3.97569e-016 0 -2.38542e-015
Head  50.6326 -26.7532 39.8987
R_Clavicle  0.638262 -13.1945 4.76775
R_UpperArm  19.8546 -1.97446 39.7871
R_Forearm  12.2017 33.3275 -33.1215
R_Hand  2.73883 7.4221 10.4612
L_Clavicle  -0.454798 14.1304 3.38406
L_UpperArm  0.279828 14.6524 38.4929
L_Forearm  3.93518 -18.9268 -23.336
L_Hand  3.46985 12.5209 21.9764
L_Thigh  -6.79573 3.43149 9.10732
L_Calf  0.347431 1.43199 -9.87153
L_Foot  1.86964 5.65778 1.88903
L_Toe0  0.505156 0.034446 -6.1361
R_Thigh  -13.4614 -29.4438 -15.0399
R_Calf  -13.9242 -9.40005 -30.8507
R_Foot  1.8868 4.89443 -6.86801
R_Toe0  10.9794 -1.9468 -11.2877
298
root  30.3769 25.6371 -14.487 -163.667 -17.0234 110.769
Spine  -0.153122 -4.44577 -6.6205
Spine1  -0.606501 7.14293 7.72473
Neck  3.97569e-016 0 -2.38542e-015
Head  49.992 -27.5902 40.3458
R_Clavicle  0.688445 -11.0985 4.7819
R_UpperArm  19.3825 0.115544 31.0694
R_Forearm  4.42092 33.729 -33.6971
R_Hand  2.18077 5.45623 10.3879
L_Clavicle  -0.443709 12.891 2.91338
L_UpperArm  -1.26913 16.4797 35.9955
L_Forearm  3.52307 -17.0852 -20.8009
L_Hand  3.77201 13.3475 22.8084
L_Thigh  -6.15817 -1.71924 8.64186
L_Calf  -3.61062 1.67356 -11.6173
L_Foot  2.23853 5.81339 3.16078
L_Toe0  0.505156 0.034446 -6.1361
R_Thigh  -12.5533 -27.3967 -10.9621
R_Calf  -10.56 -11.8117 -40.3579
R_Foot  2.26009 7.4865 -1.16872
R_Toe0  -2.90378 -0.095406 -17.987
299
root  29.8666 25.9943 -15.2888 -156.629 -19.9165 108.511
Spine  -0.0749144 -2.92779 -5.71072
Spine1  -0.549276 5.82138 7.15062
Neck  3.97569e-016 0 -2.38542e-015
Head  46.1803 -27.4155 42.4041
R_Clavicle  0.64036 -8.88849 3.95586
R_UpperArm  16.9686 1.25308 23.1514
R_Forearm  -5.30973 35.7558 -36.7496
R_Hand  1.8749 4.3227 10.4872
L_Clavicle  -0.409108 10.4788 2.32867
L_UpperArm  -2.34562 19.2484 30.3685
L_Forearm  3.38955 -12.6817 -15.0749
L_Hand  3.74285 13.9077 22.0236
L_Thigh  -3.36523 -9.69578 8.6359
L_Calf  -5.72301 1.29791 -8.7744
L_Foot  2.24728 7.92668 1.12902
L_Toe0  0.505156 0.034446 -6.1361
R_Thigh  -5.75162 -23.3715 -9.79833
R_Calf  -11.1112 -12.945 -45.3673
R_Foot  3.3041 11.3876 3.49901
R_Toe0  -1.78853 -0.272836 -17.3235
300
root  28.9722 26.6295 -15.3709 -148.053 -21.5166 103.253
Spine  1.38491 0.184756 -5.1302
Spine1  0.673382 1.56072 5.68299
Neck  3.97569e-016 0 -2.38542e-015
Head  40.306 -25.493 45.0398
R_Clavicle  0.456311 -5.65606 2.36702
R_UpperArm  14.8549 -0.187444 16.2994
R_Forearm  -11.2732 37.8618 -40.2366
R_Hand  1.85222 4.21372 10.5674
L_Clavicle  -0.320036 7.75394 1.40633
L_UpperArm  -2.81423 20.5455 23.3391
L_Forearm  -0.770784 -6.07942 -7.0781
L_Hand  3.0179 13.3236 18.4375
L_Thigh  -3.98297 -15.3149 9.83921
L_Calf  -0.0401847 0.358144 -1.84024
L_Foot  2.25322 14.216 -3.286
L_Toe0  0.505156 0.034446 -6.1361
R_Thigh  -0.104001 -15.3997 -5.36614
R_Calf  -12.7587 -12.8904 -45.1312
R_Foot  3.82529 12.877 4.94259
R_Toe0  -1.77723 -0.273613 -17.3335
301
root  28.0055 27.3378 -14.8335 -138.122 -21.1569 96.6797
Spine  3.44177 3.76646 -4.47379
Spine1  2.62902 -3.79054 4.4993
Neck  3.97569e-016 0 -2.38542e-015
Head  33.3697 -22.6527 47.8226
R_Clavicle  0.214955 -1.03576 1.03425
R_UpperArm  14.1127 -2.70287 9.57195
R_Forearm  -10.9654 37.5218 -39.6517
R_Hand  1.95025 5.08279 9.23011
L_Clavicle  -0.163319 6.09761 -0.0546117
L_UpperArm  -3.18891 19.2077 16.8536
L_Forearm  -9.22383 1.71515 1.97106
L_Hand  2.01053 12.6118 12.8459
L_Thigh  -9.21243 -16.6283 11.8622
L_Calf  14.454 -1.00695 8.53229
L_Foot  -0.182924 14.1981 -12.9732
L_Toe0  0.505156 0.034446 -6.1361
R_Thigh  3.45953 -6.10859 0.750114
R_Calf  -16.1979 -11.4995 -39.1043
R_Foot  4.27079 14.0858 5.80488
R_Toe0  -1.71709 -0.297493 -17.3992
302
root  27.226 27.9955 -14.2158 -124.103 -20.7134 90.7871
Spine  3.64348 6.0519 -1.81602
Spine1  2.97428 -6.69133 3.31271
Neck  3.97569e-016 0 -2.38542e-015
Head  26.6041 -19.2808 50.25
R_Clavicle  0.0798096 3.69043 0.641804
R_UpperArm  15.1692 -3.32756 3.93088
R_Forearm  -5.00497 34.028 -34.1395
R_Hand  1.98259 6.55167 6.34517
L_Clavicle  -0.0258186 6.08585 -1.62057
L_UpperArm  -4.55184 16.3196 12.3067
L_Forearm  -15.815 8.74175 10.2194
L_Hand  1.10109 12.2783 7.3187
L_Thigh  -14.7908 -15.9341 12.9564
L_Calf  26.7264 -2.90095 19.6353
L_Foot  -5.36299 -11.1345 -23.9109
L_Toe0  0.505156 0.034446 -6.1361
R_Thigh  7.01545 -1.33192 3.62393
R_Calf  -23.008 -8.56248 -27.8768
R_Foot  5.14148 16.589 5.1474
R_Toe0  -3.88072 0.0124086 -15.3493
303
root  26.5148 28.4846 -13.729 -107.764 -21.6239 85.264
Spine  2.21962 7.37029 2.94083
Spine1  1.35517 -7.77298 2.25914
Neck  3.97569e-016 0 -2.38542e-015
Head  21.3273 -15.5722 50.9721
R_Clavicle  0.0571924 6.71549 0.712339
R_UpperArm  17.756 -0.893844 1.41409
R_Forearm  1.28538 28.0649 -26.3152
R_Hand  1.83693 7.7164 3.1483
L_Clavicle  -0.000983507 7.29948 -2.61515
L_UpperArm  -7.54855 12.6785 10.1183
L_Forearm  -16.1557 13.6987 16.3414
L_Hand  0.452116 10.8871 3.39097
L_Thigh  -12.2202 -18.7577 12.416
L_Calf  21.1261 -7.05448 28.8734
L_Foot  -5.25103 -16.0298 -22.8039
L_Toe0  0.505156 0.034446 -6.1361
R_Thigh  7.90433 -1.54621 2.3501
R_Calf  -27.9699 -4.77591 -15.0194
R_Foot  4.06622 13.8283 3.52557
R_Toe0  -9.11089 0.833578 -10.3596
304
root  25.9397 28.425 -13.2685 -94.9994 -22.4682 80.0989
Spine  1.80481 9.07319 8.04154
Spine1  0.294925 -9.35982 1.74937
Neck  3.97569e-016 0 -2.38542e-015
Head  17.2911 -12.1019 49.6593
R_Clavicle  0.00186209 7.71129 0.539774
R_UpperArm  21.1119 3.88732 2.45916
R_Forearm  5.73997 20.055 -17.6819
R_Hand  1.54866 8.46713 -0.0766559
L_Clavicle  -0.0493357 8.42094 -2.74082
L_UpperArm  -11.3772 8.08128 8.72068
L_Forearm  -11.7195 17.6014 21.4844
L_Hand  0.121406 8.72656 1.17824
L_Thigh  -1.62777 -20.432 14.808
L_Calf  4.23356 -11.7802 34.3831
L_Foot  -4.12478 -8.57152 -16.2507
L_Toe0  0.505156 0.034446 -6.1361
R_Thigh  3.50307 -0.67052 -0.682861
R_Calf  -21.1486 -2.22345 -6.85318
R_Foot  -2.05144 -2.63423 9.01923
R_Toe0  -3.86987 -0.163735 -15.4944
305
root  25.5677 27.7704 -12.7335 -86.7649 -22.1761 75.8391
Spine  2.73121 10.958 12.69
Spine1  0.553117 -11.8935 1.38542
Neck  3.97569e-016 0 -2.38542e-015
Head  13.5314 -9.09065 47.1053
R_Clavicle  -0.0545545 8.11127 0.344351
R_UpperArm  24.8791 9.55662 5.73776
R_Forearm  8.89701 9.58926 -8.0955
R_Hand  0.871067 8.40847 -4.95124
L_Clavicle  -0.0851788 8.19073 -2.05189
L_UpperArm  -15.1458 2.89629 6.37066
L_Forearm  -5.50158 21.8701 27.6791
L_Hand  -0.0840727 6.85691 -0.573711
L_Thigh  -0.49921 -17.7164 21.096
L_Calf  -4.76897 -12.5779 36.0228
L_Foot  -2.90844 -1.49429 -13.7086
L_Toe0  0.505156 0.034446 -6.1361
R_Thigh  -2.27996 -0.07937 -0.445746
R_Calf  -8.53225 -2.13114 -6.52525
R_Foot  -5.11206 -9.06135 12.3607
R_Toe0  -1.57575 -0.288555 -17.5138
306
root  25.2681 26.9196 -12.0501 -81.8962 -20.4124 72.4683
Spine  4.02898 12.6342 16.6891
Spine1  1.27313 -15.0354 1.17164
Neck  3.97569e-016 0 -2.38542e-015
Head  10.5013 -6.96446 43.4654
R_Clavicle  -0.0323154 9.58677 0.492128
R_UpperArm  28.9382 14.5956 9.7346
R_Forearm  11.2597 -2.96113 2.45097
R_Hand  -0.0418143 7.94793 -11.4951
L_Clavicle  -0.102063 6.67191 -1.00909
L_UpperArm  -21.1995 -1.93249 4.14973
L_Forearm  0.418928 26.6576 34.693
L_Hand  -0.311227 5.01204 -3.15851
L_Thigh  -1.9562 -11.8734 28.9595
L_Calf  -9.90953 -13.273 36.3526
L_Foot  -2.48986 1.33181 -13.5232
L_Toe0  0.505156 0.034446 -6.1361
R_Thigh  -3.91895 -2.29572 4.11978
R_Calf  -1.92026 -3.80803 -11.6605
R_Foot  -2.63137 -2.70857 12.6956
R_Toe0  -1.78853 -0.272788 -17.3235
307
root  24.8857 26.2768 -11.2656 -79.5071 -17.2497 69.5487
Spine  4.70245 13.1743 19.4932
Spine1  1.49242 -17.3077 1.41269
Neck  3.97569e-016 0 -2.38542e-015
Head  9.63187 -6.69642 38.5512
R_Clavicle  0.13037 11.9887 1.15491
R_UpperArm  33.0742 18.5267 13.9248
R_Forearm  12.4621 -15.5472 13.308
R_Hand  -0.79454 7.56577 -17.2014
L_Clavicle  -0.127752 5.05142 -0.125603
L_UpperArm  -32.6294 -5.99122 4.92412
L_Forearm  5.38583 31.5537 41.5002
L_Hand  -0.510642 3.13965 -6.55531
L_Thigh  -1.69573 -4.63404 35.591
L_Calf  -13.3875 -13.6791 39.033
L_Foot  -2.39261 2.51392 -13.7935
L_Toe0  0.505156 0.034446 -6.1361
R_Thigh  -2.39762 -7.12803 10.3478
R_Calf  -1.7498 -4.81111 -14.8651
R_Foot  -2.7773 -2.93018 13.0871
R_Toe0  -1.78853 -0.272788 -17.3235
